<svg viewBox="0 0 400 300" preserveAspectRatio="xMidYMid slice" xmlns="http://www.w3.org/2000/svg">
  <defs>
    <linearGradient id="aBg" x1="0" y1="0" x2="0" y2="1"><stop offset="0" stop-color="#fceed2"/><stop offset=".55" stop-color="#f6ddb4"/><stop offset="1" stop-color="#ecca97"/></linearGradient>
    <radialGradient id="aSpot" cx="50%" cy="38%" r="58%"><stop offset="0" stop-color="#fffaf0" stop-opacity=".95"/><stop offset="1" stop-color="#fffaf0" stop-opacity="0"/></radialGradient>
    <linearGradient id="aHoney" x1="0" y1="0" x2="1" y2="0"><stop offset="0" stop-color="#b0640f"/><stop offset=".18" stop-color="#e78d1c"/><stop offset=".5" stop-color="#ffc85e"/><stop offset=".82" stop-color="#df8318"/><stop offset="1" stop-color="#a2580d"/></linearGradient>
    <linearGradient id="aHoneyV" x1="0" y1="0" x2="0" y2="1"><stop offset="0" stop-color="#fff" stop-opacity=".4"/><stop offset=".16" stop-color="#fff" stop-opacity="0"/><stop offset="1" stop-color="#5e300a" stop-opacity=".28"/></linearGradient>
    <linearGradient id="aLid" x1="0" y1="0" x2="0" y2="1"><stop offset="0" stop-color="#8a5a2e"/><stop offset=".5" stop-color="#5c3718"/><stop offset="1" stop-color="#3f2410"/></linearGradient>
    <linearGradient id="aLabel" x1="0" y1="0" x2="1" y2="0"><stop offset="0" stop-color="#eaddc1"/><stop offset=".5" stop-color="#fffdf7"/><stop offset="1" stop-color="#e6d5b3"/></linearGradient>
    <radialGradient id="aVig" cx="50%" cy="44%" r="74%"><stop offset="62%" stop-color="#3a2410" stop-opacity="0"/><stop offset="100%" stop-color="#3a2410" stop-opacity=".28"/></radialGradient>
    <filter id="aShadow"><feGaussianBlur stdDeviation="7"/></filter>
    <filter id="aSoft"><feGaussianBlur stdDeviation="1.1"/></filter>
    <filter id="aGrain"><feTurbulence type="fractalNoise" baseFrequency=".85" numOctaves="2" stitchTiles="stitch"/><feColorMatrix type="saturate" values="0"/></filter>
  </defs>
  <rect width="400" height="300" fill="url(#aBg)"/>
  <ellipse cx="200" cy="120" rx="240" ry="160" fill="url(#aSpot)"/>
  <ellipse cx="204" cy="250" rx="88" ry="17" fill="#7a4a12" opacity=".33" filter="url(#aShadow)"/>
  <g transform="translate(0,500) scale(1,-1)" opacity=".14" filter="url(#aSoft)"><rect x="152" y="122" width="100" height="128" rx="20" fill="url(#aHoney)"/></g>
  <rect x="152" y="122" width="100" height="128" rx="20" fill="url(#aHoney)"/>
  <rect x="152" y="122" width="100" height="128" rx="20" fill="url(#aHoneyV)"/>
  <rect x="154" y="128" width="4" height="118" rx="2" fill="#fff" opacity=".16"/>
  <rect x="246" y="128" width="4" height="118" rx="2" fill="#3a1e06" opacity=".2"/>
  <rect x="166" y="134" width="13" height="98" rx="6.5" fill="#fff" opacity=".5" filter="url(#aSoft)"/>
  <rect x="184" y="142" width="5" height="72" rx="2.5" fill="#fff" opacity=".24"/>
  <rect x="152" y="134" width="100" height="6" rx="3" fill="#ffdd8a" opacity=".4"/>
  <ellipse cx="200" cy="120" rx="52" ry="9" fill="#2f1c0c"/>
  <rect x="148" y="98" width="104" height="26" rx="8" fill="url(#aLid)"/>
  <rect x="152" y="102" width="96" height="5" rx="2.5" fill="#fff" opacity=".2"/>
  <ellipse cx="200" cy="98" rx="52" ry="9" fill="#6b4423"/>
  <g filter="url(#aSoft)"><rect x="164" y="160" width="74" height="64" rx="8" fill="#00000022"/></g>
  <rect x="163" y="158" width="74" height="62" rx="8" fill="url(#aLabel)"/>
  <text x="200" y="184" font-size="18" text-anchor="middle" fill="#a86a12" font-family="Georgia,serif" font-weight="700" font-style="italic">Madu</text>
  <text x="200" y="200" font-size="8" text-anchor="middle" fill="#7a5a2a" font-family="sans-serif" letter-spacing="2">HUTAN ASLI</text>
  <circle cx="200" cy="211" r="6" fill="none" stroke="#c69544" stroke-width="1"/>
  <rect width="400" height="300" filter="url(#aGrain)" opacity=".05"/>
  <rect width="400" height="300" fill="url(#aVig)"/>
</svg>
