<svg viewBox="0 0 300 300" preserveAspectRatio="xMidYMid slice" xmlns="http://www.w3.org/2000/svg">
  <defs>
    <linearGradient id="g2Bg" x1="0" y1="0" x2="0" y2="1"><stop offset="0" stop-color="#f3ece2"/><stop offset=".6" stop-color="#e6dac9"/><stop offset="1" stop-color="#d6c6ae"/></linearGradient>
    <radialGradient id="g2Sp" cx="50%" cy="36%" r="60%"><stop offset="0" stop-color="#fffdf8" stop-opacity=".9"/><stop offset="1" stop-color="#fffdf8" stop-opacity="0"/></radialGradient>
    <linearGradient id="g2B" x1="0" y1="0" x2="1" y2="0"><stop offset="0" stop-color="#3a2213"/><stop offset=".22" stop-color="#6a4327"/><stop offset=".5" stop-color="#875634"/><stop offset=".8" stop-color="#5a381f"/><stop offset="1" stop-color="#341d10"/></linearGradient>
    <filter id="g2S"><feGaussianBlur stdDeviation="6"/></filter>
    <filter id="g2So"><feGaussianBlur stdDeviation="1"/></filter>
  </defs>
  <rect width="300" height="300" fill="url(#g2Bg)"/>
  <ellipse cx="150" cy="120" rx="180" ry="130" fill="url(#g2Sp)"/>
  <ellipse cx="152" cy="254" rx="82" ry="15" fill="#3a2213" opacity=".3" filter="url(#g2S)"/>
  <path d="M98 96 q52 -14 104 0 v150 a6 6 0 0 1-6 6 h-92 a6 6 0 0 1-6 -6 z" fill="url(#g2B)"/>
  <path d="M98 96 q52 -14 104 0 v10 q-52 -12 -104 0 z" fill="#241207"/>
  <rect x="112" y="80" width="76" height="12" rx="3" fill="#20120a"/>
  <rect x="120" y="122" width="8" height="120" rx="4" fill="#fff" opacity=".12" filter="url(#g2So)"/>
  <g filter="url(#g2So)"><rect x="116" y="140" width="68" height="80" rx="6" fill="#00000026"/></g>
  <rect x="115" y="138" width="68" height="78" rx="6" fill="#efe3d6"/>
  <circle cx="149" cy="166" r="15" fill="none" stroke="#7A4E2E" stroke-width="2.5"/>
  <text x="149" y="171" font-size="12" text-anchor="middle" fill="#5A3A22" font-family="Georgia,serif" font-weight="800">K</text>
  <text x="149" y="196" font-size="13" text-anchor="middle" fill="#5A3A22" font-family="sans-serif" font-weight="800" letter-spacing="1">KOPI</text>
  <text x="149" y="208" font-size="7" text-anchor="middle" fill="#8a6a4a" font-family="sans-serif" letter-spacing="2">GAYO</text>
</svg>
