<svg viewBox="0 0 300 300" preserveAspectRatio="xMidYMid slice" xmlns="http://www.w3.org/2000/svg">
  <defs>
    <linearGradient id="g3Bg" x1="0" y1="0" x2="0" y2="1"><stop offset="0" stop-color="#fdeff4"/><stop offset=".6" stop-color="#f6dbe4"/><stop offset="1" stop-color="#eec4d4"/></linearGradient>
    <radialGradient id="g3Sp" cx="50%" cy="36%" r="60%"><stop offset="0" stop-color="#fffafc" stop-opacity=".9"/><stop offset="1" stop-color="#fffafc" stop-opacity="0"/></radialGradient>
    <linearGradient id="g3B" x1="0" y1="0" x2="1" y2="0"><stop offset="0" stop-color="#d97ea3"/><stop offset=".2" stop-color="#f2add0" stop-opacity=".9"/><stop offset=".5" stop-color="#f7c6dd" stop-opacity=".85"/><stop offset=".8" stop-color="#e79bbd" stop-opacity=".9"/><stop offset="1" stop-color="#c96f96"/></linearGradient>
    <filter id="g3S"><feGaussianBlur stdDeviation="6"/></filter>
    <filter id="g3So"><feGaussianBlur stdDeviation="1"/></filter>
  </defs>
  <rect width="300" height="300" fill="url(#g3Bg)"/>
  <ellipse cx="150" cy="120" rx="180" ry="130" fill="url(#g3Sp)"/>
  <ellipse cx="152" cy="256" rx="58" ry="13" fill="#a04a70" opacity=".28" filter="url(#g3S)"/>
  <rect x="132" y="70" width="36" height="34" rx="6" fill="#4a3540"/>
  <rect x="138" y="60" width="24" height="16" rx="6" fill="#5c4450"/>
  <ellipse cx="150" cy="60" rx="12" ry="6" fill="#6d5460"/>
  <g transform="translate(0,506) scale(1,-1)" opacity=".12" filter="url(#g3So)"><rect x="116" y="104" width="68" height="150" rx="20" fill="url(#g3B)"/></g>
  <rect x="116" y="104" width="68" height="150" rx="20" fill="url(#g3B)"/>
  <rect x="126" y="116" width="9" height="120" rx="4.5" fill="#fff" opacity=".55" filter="url(#g3So)"/>
  <g filter="url(#g3So)"><rect x="124" y="150" width="52" height="70" rx="7" fill="#00000018"/></g>
  <rect x="123" y="148" width="52" height="68" rx="7" fill="#fffafc"/>
  <text x="149" y="180" font-size="12" text-anchor="middle" fill="#c76a92" font-family="Georgia,serif" font-weight="700" font-style="italic">Glow</text>
  <text x="149" y="196" font-size="7.5" text-anchor="middle" fill="#b07690" font-family="sans-serif" letter-spacing="1.5">SERUM</text>
</svg>
